<?xml version="1.0" standalone="no"?>
<!DOCTYPE svg PUBLIC "-//W3C//DTD SVG 20010904//EN"
 "http://www.w3.org/TR/2001/REC-SVG-20010904/DTD/svg10.dtd">
<svg version="1.0" xmlns="http://www.w3.org/2000/svg"
 width="600.000000pt" height="600.000000pt" viewBox="0 0 600.000000 600.000000"
 preserveAspectRatio="xMidYMid meet">
<metadata>
Created by potrace 1.11, written by Peter Selinger 2001-2013
</metadata>
<g transform="translate(0.000000,600.000000) scale(0.100000,-0.100000)"
fill="#000000" stroke="none">
<path d="M957 5323 c-2 -5 -3 -1054 -3 -2333 l1 -2325 506 -3 505 -2 0 755 0
754 299 295 299 294 109 -161 c193 -288 296 -440 365 -542 37 -55 157 -233
266 -395 110 -162 272 -403 361 -535 90 -132 196 -289 237 -350 l74 -110 642
-3 c353 -1 642 0 642 2 0 3 -100 146 -222 318 -122 172 -247 349 -278 393 -31
44 -140 198 -243 343 -103 145 -187 267 -187 272 0 5 -3 10 -8 12 -7 3 -47 59
-241 333 -50 72 -114 162 -142 200 -27 39 -112 158 -188 265 -75 107 -198 281
-272 385 -136 193 -186 264 -204 290 -7 11 70 94 342 367 194 194 604 607 912
918 l560 565 -642 3 -642 3 -90 -94 c-93 -96 -358 -376 -415 -437 -18 -19 -94
-100 -170 -180 -76 -80 -152 -161 -170 -180 -18 -19 -99 -105 -180 -190 -81
-85 -162 -171 -180 -190 -18 -19 -96 -102 -175 -185 -78 -82 -157 -166 -176
-186 -200 -214 -274 -288 -278 -280 -3 5 -6 439 -5 965 l0 956 -502 0 c-277 0
-504 -3 -507 -7z"/>
</g>
</svg>
